<svg xmlns="http://www.w3.org/2000/svg" xmlns:xlink="http://www.w3.org/1999/xlink" version="1.1" width="1280" height="720" viewBox="0 0 1280 720">
  <defs>
    <clipPath id="clip_item1"><rect x="500" y="83" width="740" height="86" rx="8" ry="8"/></clipPath>
    <clipPath id="clip_item2"><rect x="500" y="183" width="740" height="86" rx="8" ry="8"/></clipPath>
    <clipPath id="clip_item3"><rect x="500" y="283" width="740" height="86" rx="8" ry="8"/></clipPath>
    <clipPath id="clip_item4"><rect x="500" y="383" width="740" height="86" rx="8" ry="8"/></clipPath>
    <clipPath id="clip_item5"><rect x="500" y="483" width="740" height="86" rx="8" ry="8"/></clipPath>
    <clipPath id="clip_item6"><rect x="500" y="583" width="740" height="86" rx="8" ry="8"/></clipPath>
  </defs>

  <!-- Full background: includes dark left sidebar with "目录/CONTENTS" text baked in -->
  <image x="0" y="0" width="1280" height="720" xlink:href="./toc_bg.png" preserveAspectRatio="xMidYMid slice"/>

  <!-- TOC Item 1 -->
  <image x="500" y="83" width="500" height="86" xlink:href="./toc_item_bg.png"
    preserveAspectRatio="none" clip-path="url(#clip_item1)" />
  <rect x="500" y="83" width="8" height="86" fill="#249087" rx="2"/>
  <text x="524" y="119" font-family="Microsoft YaHei, SimHei, sans-serif" font-size="13" fill="#249087" font-weight="bold">01</text>
  <text x="524" y="146" font-family="Microsoft YaHei, SimHei, sans-serif" font-size="21" font-weight="bold" fill="#1a3a38">{{TOC_ITEM_1_TITLE}}</text>

  <!-- TOC Item 2 -->
  <image x="500" y="183" width="500" height="86" xlink:href="./toc_item_bg.png"
    preserveAspectRatio="none" clip-path="url(#clip_item2)" />

  <rect x="500" y="183" width="8" height="86" fill="#249087" rx="2"/>
  <text x="524" y="219" font-family="Microsoft YaHei, SimHei, sans-serif" font-size="13" fill="#249087" font-weight="bold">02</text>
  <text x="524" y="246" font-family="Microsoft YaHei, SimHei, sans-serif" font-size="21" font-weight="bold" fill="#1a3a38">{{TOC_ITEM_2_TITLE}}</text>

  <!-- TOC Item 3 -->
  <image x="500" y="283" width="500" height="86" xlink:href="./toc_item_bg.png"
    preserveAspectRatio="none" clip-path="url(#clip_item3)" />

  <rect x="500" y="283" width="8" height="86" fill="#249087" rx="2"/>
  <text x="524" y="319" font-family="Microsoft YaHei, SimHei, sans-serif" font-size="13" fill="#249087" font-weight="bold">03</text>
  <text x="524" y="346" font-family="Microsoft YaHei, SimHei, sans-serif" font-size="21" font-weight="bold" fill="#1a3a38">{{TOC_ITEM_3_TITLE}}</text>

  <!-- TOC Item 4 -->
  <image x="500" y="383" width="500" height="86" xlink:href="./toc_item_bg.png"
    preserveAspectRatio="none" clip-path="url(#clip_item4)" />

  <rect x="500" y="383" width="8" height="86" fill="#249087" rx="2"/>
  <text x="524" y="419" font-family="Microsoft YaHei, SimHei, sans-serif" font-size="13" fill="#249087" font-weight="bold">04</text>
  <text x="524" y="446" font-family="Microsoft YaHei, SimHei, sans-serif" font-size="21" font-weight="bold" fill="#1a3a38">{{TOC_ITEM_4_TITLE}}</text>

  <!-- TOC Item 5 -->
  <image x="500" y="483" width="500" height="86" xlink:href="./toc_item_bg.png"
    preserveAspectRatio="none" clip-path="url(#clip_item5)" />

  <rect x="500" y="483" width="8" height="86" fill="#249087" rx="2"/>
  <text x="524" y="519" font-family="Microsoft YaHei, SimHei, sans-serif" font-size="13" fill="#249087" font-weight="bold">05</text>
  <text x="524" y="546" font-family="Microsoft YaHei, SimHei, sans-serif" font-size="21" font-weight="bold" fill="#1a3a38">{{TOC_ITEM_5_TITLE}}</text>

  <!-- TOC Item 6 -->
  <image x="500" y="583" width="500" height="86" xlink:href="./toc_item_bg.png"
    preserveAspectRatio="none" clip-path="url(#clip_item6)" />

  <rect x="500" y="583" width="8" height="86" fill="#249087" rx="2"/>
  <text x="524" y="619" font-family="Microsoft YaHei, SimHei, sans-serif" font-size="13" fill="#249087" font-weight="bold">06</text>
  <text x="524" y="646" font-family="Microsoft YaHei, SimHei, sans-serif" font-size="21" font-weight="bold" fill="#1a3a38">{{TOC_ITEM_6_TITLE}}</text>
</svg>
