<svg xmlns="http://www.w3.org/2000/svg" xmlns:xlink="http://www.w3.org/1999/xlink" version="1.1" width="1280" height="720" viewBox="0 0 1280 720">
  <!-- White background -->
  <rect x="0" y="0" width="1280" height="720" fill="#FFFFFF"/>

  <!-- Left sidebar background: toc photo -->
  <image x="0" y="0" width="1280" height="720" xlink:href="./toc_bg.png"
    preserveAspectRatio="xMidYMid slice" />


  <!-- Right content area: TOC items -->


  <!-- TOC item 1 -->
  <rect x="380" y="80" width="900" height="1" fill="#D0D7E8"/>
  <rect x="410" y="107" width="4" height="44" fill="#249087" rx="2"/>
  <text x="430" y="123" font-family="Microsoft YaHei, SimHei, sans-serif" font-size="13" fill="#249087">01</text>
  <text x="430" y="143" font-family="Microsoft YaHei, SimHei, sans-serif" font-size="18" font-weight="bold" fill="#1A1A2E">{{TOC_ITEM_1_TITLE}}</text>
  <rect x="410" y="158" width="850" height="1" fill="#D0D7E8" fill-opacity="0.6"/>

  <!-- TOC item 2 -->
  <rect x="410" y="172" width="4" height="44" fill="#249087" rx="2"/>
  <text x="430" y="188" font-family="Microsoft YaHei, SimHei, sans-serif" font-size="13" fill="#249087">02</text>
  <text x="430" y="208" font-family="Microsoft YaHei, SimHei, sans-serif" font-size="18" font-weight="bold" fill="#1A1A2E">{{TOC_ITEM_2_TITLE}}</text>
  <rect x="410" y="223" width="850" height="1" fill="#D0D7E8" fill-opacity="0.6"/>

  <!-- TOC item 3 -->
  <rect x="410" y="237" width="4" height="44" fill="#249087" rx="2"/>
  <text x="430" y="253" font-family="Microsoft YaHei, SimHei, sans-serif" font-size="13" fill="#249087">03</text>
  <text x="430" y="273" font-family="Microsoft YaHei, SimHei, sans-serif" font-size="18" font-weight="bold" fill="#1A1A2E">{{TOC_ITEM_3_TITLE}}</text>
  <rect x="410" y="288" width="850" height="1" fill="#D0D7E8" fill-opacity="0.6"/>

  <!-- TOC item 4 -->
  <rect x="410" y="302" width="4" height="44" fill="#249087" rx="2"/>
  <text x="430" y="318" font-family="Microsoft YaHei, SimHei, sans-serif" font-size="13" fill="#249087">04</text>
  <text x="430" y="338" font-family="Microsoft YaHei, SimHei, sans-serif" font-size="18" font-weight="bold" fill="#1A1A2E">{{TOC_ITEM_4_TITLE}}</text>
  <rect x="410" y="353" width="850" height="1" fill="#D0D7E8" fill-opacity="0.6"/>

  <!-- TOC item 5 -->
  <rect x="410" y="367" width="4" height="44" fill="#249087" rx="2"/>
  <text x="430" y="383" font-family="Microsoft YaHei, SimHei, sans-serif" font-size="13" fill="#249087">05</text>
  <text x="430" y="403" font-family="Microsoft YaHei, SimHei, sans-serif" font-size="18" font-weight="bold" fill="#1A1A2E">{{TOC_ITEM_5_TITLE}}</text>
  <rect x="410" y="418" width="850" height="1" fill="#D0D7E8" fill-opacity="0.6"/>

  <!-- TOC item 6 -->
  <rect x="410" y="432" width="4" height="44" fill="#249087" rx="2"/>
  <text x="430" y="448" font-family="Microsoft YaHei, SimHei, sans-serif" font-size="13" fill="#249087">06</text>
  <text x="430" y="468" font-family="Microsoft YaHei, SimHei, sans-serif" font-size="18" font-weight="bold" fill="#1A1A2E">{{TOC_ITEM_6_TITLE}}</text>
  <rect x="410" y="483" width="850" height="1" fill="#D0D7E8" fill-opacity="0.6"/>

</svg>
